<svg width="18" height="18" viewBox="0 0 18 18" fill="none" xmlns="http://www.w3.org/2000/svg">
<path d="M11.685 8.99994C11.685 9.53099 11.5276 10.0501 11.2325 10.4917C10.9375 10.9332 10.5182 11.2773 10.0275 11.4806C9.53692 11.6838 8.99706 11.737 8.47622 11.6334C7.95538 11.5298 7.47696 11.274 7.10145 10.8985C6.72595 10.523 6.47023 10.0446 6.36663 9.52376C6.26302 9.00292 6.3162 8.46306 6.51942 7.97244C6.72264 7.48182 7.06678 7.06248 7.50833 6.76745C7.94987 6.47242 8.46899 6.31494 9.00003 6.31494C9.35274 6.31455 9.70207 6.38373 10.028 6.51852C10.3539 6.65332 10.6501 6.85108 10.8995 7.10048C11.1489 7.34989 11.3467 7.64603 11.4815 7.97197C11.6162 8.29791 11.6854 8.64723 11.685 8.99994Z" stroke="#C4C4C4" stroke-width="1.5" stroke-linecap="round" stroke-linejoin="round"/>
<path d="M9 15.2025C11.6475 15.2025 14.115 13.6425 15.8325 10.9425C16.1645 10.3476 16.3387 9.67759 16.3387 8.99629C16.3387 8.31498 16.1645 7.645 15.8325 7.05004C14.1113 4.35004 11.6475 2.79004 9 2.79004C6.3525 2.79004 3.885 4.35004 2.1675 7.05004C1.83555 7.645 1.66129 8.31498 1.66129 8.99629C1.66129 9.67759 1.83555 10.3476 2.1675 10.9425C3.885 13.6425 6.3525 15.2025 9 15.2025Z" stroke="#C4C4C4" stroke-width="1.5" stroke-linecap="round" stroke-linejoin="round"/>
<path d="M10.8975 7.10255L7.10249 10.8976C6.85138 10.6488 6.65189 10.3529 6.51547 10.0268C6.37905 9.70072 6.3084 9.3509 6.30756 8.99744C6.30673 8.64397 6.37574 8.29382 6.51062 7.96711C6.6455 7.64039 6.8436 7.34353 7.09354 7.0936C7.34347 6.84366 7.64033 6.64556 7.96705 6.51068C8.29376 6.3758 8.64391 6.30679 8.99738 6.30762C9.35084 6.30846 9.70066 6.37911 10.0267 6.51553C10.3528 6.65195 10.6487 6.85144 10.8975 7.10255V7.10255Z" stroke="#C4C4C4" stroke-width="1.5" stroke-linecap="round" stroke-linejoin="round"/>
<path d="M13.3613 4.32761C12.1143 3.35372 10.5821 2.8162 9 2.79761C6.3525 2.79761 3.885 4.35761 2.1675 7.05761C1.83555 7.65257 1.66129 8.32255 1.66129 9.00386C1.66129 9.68516 1.83555 10.3551 2.1675 10.9501C2.7254 11.8375 3.41016 12.6385 4.2 13.3276" stroke="#C4C4C4" stroke-width="1.5" stroke-linecap="round" stroke-linejoin="round"/>
<path d="M11.6325 9.5249C11.5309 10.0481 11.2753 10.529 10.8984 10.9058C10.5216 11.2827 10.0407 11.5383 9.51752 11.6399" stroke="#C4C4C4" stroke-width="1.5" stroke-linecap="round" stroke-linejoin="round"/>
<path d="M7.1025 10.8975L1.5 16.5" stroke="#C4C4C4" stroke-width="1.5" stroke-linecap="round" stroke-linejoin="round"/>
<path d="M16.5 1.5L10.8975 7.1025" stroke="#C4C4C4" stroke-width="1.5" stroke-linecap="round" stroke-linejoin="round"/>
</svg>
